<?xml version="1.0" encoding="UTF-8" standalone="no"?>
<!-- Created with Inkscape (http://www.inkscape.org/) -->

<svg
   width="210mm"
   height="297mm"
   viewBox="0 0 210 297"
   version="1.1"
   id="svg5"
   xml:space="preserve"
   inkscape:export-filename="bitmap.svg"
   inkscape:export-xdpi="96"
   inkscape:export-ydpi="96"
   sodipodi:docname="bitmap.svg"
   inkscape:version="1.2 (dc2aeda, 2022-05-15)"
   xmlns:inkscape="http://www.inkscape.org/namespaces/inkscape"
   xmlns:sodipodi="http://sodipodi.sourceforge.net/DTD/sodipodi-0.dtd"
   xmlns="http://www.w3.org/2000/svg"
   xmlns:svg="http://www.w3.org/2000/svg"><sodipodi:namedview
     id="namedview7"
     pagecolor="#ffffff"
     bordercolor="#999999"
     borderopacity="1"
     inkscape:showpageshadow="0"
     inkscape:pageopacity="0"
     inkscape:pagecheckerboard="0"
     inkscape:deskcolor="#d1d1d1"
     inkscape:document-units="px"
     showgrid="false"
     showguides="false"
     inkscape:zoom="1.0713349"
     inkscape:cx="77.473443"
     inkscape:cy="168.94811"
     inkscape:window-width="1467"
     inkscape:window-height="796"
     inkscape:window-x="14"
     inkscape:window-y="89"
     inkscape:window-maximized="0"
     inkscape:current-layer="layer1" /><defs
     id="defs2"><inkscape:perspective
       sodipodi:type="inkscape:persp3d"
       inkscape:vp_x="0 : 148.5 : 1"
       inkscape:vp_y="0 : 1000 : 0"
       inkscape:vp_z="210 : 148.5 : 1"
       inkscape:persp3d-origin="105 : 99 : 1"
       id="perspective489" /></defs><g
     inkscape:label="Layer 1"
     inkscape:groupmode="layer"
     id="layer1"><path
       id="path2577"
       style="fill:#000000;stroke:none;stroke-width:0.264583;stroke-dasharray:none;stroke-opacity:1"
       d="M 27.78125,1.3229167 A 26.458334,26.458334 0 0 0 1.3229167,27.781251 26.458334,26.458334 0 0 0 27.78125,54.239585 26.458334,26.458334 0 0 0 54.015825,31.088543 h 0.01499 a 2.2856455,1.3229166 0 0 1 2.285649,-1.322917 2.2856455,1.3229166 0 0 1 2.285648,1.322917 9.7273283,9.7273283 0 0 0 9.141044,6.42028 9.7273283,9.7273283 0 0 0 9.727572,-9.727572 A 9.7273283,9.7273283 0 0 0 67.743156,18.05368 9.7273283,9.7273283 0 0 0 58.602112,24.47396 2.2856455,1.3229166 0 0 1 56.31646,25.796876 2.2856455,1.3229166 0 0 1 54.030811,24.47396 26.458334,26.458334 0 0 0 27.78125,1.3229167 Z m 0,2.6458334 A 23.8125,23.8125 0 0 1 51.59375,27.781251 23.8125,23.8125 0 0 1 27.78125,51.593751 23.8125,23.8125 0 0 1 3.9687501,27.781251 23.8125,23.8125 0 0 1 27.78125,3.9687501 Z m 0,10.5833349 A 13.229167,13.229167 0 0 0 14.552084,27.781251 13.229167,13.229167 0 0 0 27.78125,41.010418 13.229167,13.229167 0 0 0 41.010417,27.781251 13.229167,13.229167 0 0 0 27.78125,14.552085 Z" /><path
       style="fill:#800000;stroke:none;stroke-width:0;stroke-dasharray:none;stroke-opacity:1"
       d="m 52.707894,23.151042 -0.01499,6.614583"
       id="path2132" /><path
       style="fill:#000000;stroke:none;stroke-width:0;stroke-dasharray:none;stroke-opacity:1"
       d="M 52.707894,23.151042 C 39.6875,26.458333 38.073904,20.260036 38.073904,20.260036 v 12.529916 c 0,0 -1.665563,6.426489 -0.02598,0.04744 1.639578,-6.379054 14.644981,-3.071762 14.644981,-3.071762 l 0.015,-6.614583"
       id="path2646" /></g></svg>
